<mxfile host="app.diagrams.net" agent="Mozilla/5.0 (Windows NT 10.0; Win64; x64) AppleWebKit/537.36 (KHTML, like Gecko) Chrome/131.0.0.0 Safari/537.36" version="26.0.3">
  <diagram name="Page-1" id="tInYgjuP8QOeVG5bkKig">
    <mxGraphModel dx="1434" dy="772" grid="1" gridSize="10" guides="1" tooltips="1" connect="1" arrows="1" fold="1" page="1" pageScale="1" pageWidth="850" pageHeight="1100" math="0" shadow="0">
      <root>
        <mxCell id="0" />
        <mxCell id="1" parent="0" />
        <mxCell id="SD84Jqw0sNpji9GHYgJN-2" value="&lt;b&gt;&lt;font style=&quot;font-size: 14px;&quot;&gt;Pod&lt;/font&gt;&lt;/b&gt;" style="rounded=1;arcSize=10;whiteSpace=wrap;html=1;align=center;fillColor=#d5e8d4;strokeColor=#82b366;" parent="1" vertex="1">
          <mxGeometry x="320" y="320" width="100" height="40" as="geometry" />
        </mxCell>
        <mxCell id="SD84Jqw0sNpji9GHYgJN-3" value="&lt;b&gt;&lt;font style=&quot;font-size: 14px;&quot;&gt;Service/&lt;/font&gt;&lt;/b&gt;&lt;div&gt;&lt;b&gt;&lt;font style=&quot;font-size: 14px;&quot;&gt;ClusterIP&lt;/font&gt;&lt;/b&gt;&lt;/div&gt;" style="rounded=1;arcSize=10;whiteSpace=wrap;html=1;align=center;fillColor=#ffe6cc;strokeColor=#d79b00;" parent="1" vertex="1">
          <mxGeometry x="320" y="240" width="100" height="40" as="geometry" />
        </mxCell>
        <mxCell id="SD84Jqw0sNpji9GHYgJN-4" value="" style="rounded=1;whiteSpace=wrap;html=1;" parent="1" vertex="1">
          <mxGeometry x="460" y="140" width="360" height="420" as="geometry" />
        </mxCell>
        <mxCell id="SD84Jqw0sNpji9GHYgJN-9" value="&lt;b&gt;&lt;font style=&quot;font-size: 14px;&quot;&gt;flask&lt;/font&gt;&lt;/b&gt;" style="rounded=1;arcSize=10;whiteSpace=wrap;html=1;align=center;fillColor=#e1d5e7;strokeColor=#9673a6;" parent="1" vertex="1">
          <mxGeometry x="630" y="260" width="100" height="40" as="geometry" />
        </mxCell>
        <mxCell id="SD84Jqw0sNpji9GHYgJN-10" value="&lt;b&gt;&lt;font style=&quot;font-size: 14px;&quot;&gt;flask-1&lt;/font&gt;&lt;/b&gt;" style="rounded=1;arcSize=10;whiteSpace=wrap;html=1;align=center;fillColor=#d5e8d4;strokeColor=#82b366;" parent="1" vertex="1">
          <mxGeometry x="700" y="360" width="100" height="40" as="geometry" />
        </mxCell>
        <mxCell id="SD84Jqw0sNpji9GHYgJN-11" value="&lt;b&gt;&lt;font style=&quot;font-size: 14px;&quot;&gt;flask-0&lt;/font&gt;&lt;/b&gt;" style="rounded=1;arcSize=10;whiteSpace=wrap;html=1;align=center;fillColor=#d5e8d4;strokeColor=#82b366;" parent="1" vertex="1">
          <mxGeometry x="560" y="360" width="100" height="40" as="geometry" />
        </mxCell>
        <mxCell id="SD84Jqw0sNpji9GHYgJN-15" value="10.244.2.2" style="text;html=1;align=center;verticalAlign=middle;whiteSpace=wrap;rounded=0;" parent="1" vertex="1">
          <mxGeometry x="560" y="400" width="100" height="20" as="geometry" />
        </mxCell>
        <mxCell id="SD84Jqw0sNpji9GHYgJN-16" value="10.244.1.2" style="text;html=1;align=center;verticalAlign=middle;whiteSpace=wrap;rounded=0;" parent="1" vertex="1">
          <mxGeometry x="700" y="400" width="100" height="20" as="geometry" />
        </mxCell>
        <mxCell id="SD84Jqw0sNpji9GHYgJN-20" value="" style="edgeStyle=elbowEdgeStyle;elbow=vertical;endArrow=classic;html=1;curved=0;rounded=0;endSize=8;startSize=8;entryX=0.5;entryY=0;entryDx=0;entryDy=0;exitX=0.5;exitY=1;exitDx=0;exitDy=0;" parent="1" source="SD84Jqw0sNpji9GHYgJN-9" target="SD84Jqw0sNpji9GHYgJN-10" edge="1">
          <mxGeometry width="50" height="50" relative="1" as="geometry">
            <mxPoint x="300" y="310" as="sourcePoint" />
            <mxPoint x="440" y="370" as="targetPoint" />
          </mxGeometry>
        </mxCell>
        <mxCell id="SD84Jqw0sNpji9GHYgJN-21" value="" style="edgeStyle=elbowEdgeStyle;elbow=vertical;endArrow=classic;html=1;curved=0;rounded=0;endSize=8;startSize=8;exitX=0.5;exitY=1;exitDx=0;exitDy=0;entryX=0.5;entryY=0;entryDx=0;entryDy=0;" parent="1" source="SD84Jqw0sNpji9GHYgJN-9" target="SD84Jqw0sNpji9GHYgJN-11" edge="1">
          <mxGeometry width="50" height="50" relative="1" as="geometry">
            <mxPoint x="300" y="310" as="sourcePoint" />
            <mxPoint x="160" y="370" as="targetPoint" />
          </mxGeometry>
        </mxCell>
        <mxCell id="SD84Jqw0sNpji9GHYgJN-27" value="&lt;b&gt;&lt;font style=&quot;font-size: 14px;&quot;&gt;service&lt;/font&gt;&lt;/b&gt;" style="rounded=1;arcSize=10;whiteSpace=wrap;html=1;align=center;fillColor=#ffe6cc;strokeColor=#d79b00;" parent="1" vertex="1">
          <mxGeometry x="630" y="480" width="100" height="40" as="geometry" />
        </mxCell>
        <mxCell id="SD84Jqw0sNpji9GHYgJN-28" value="" style="edgeStyle=elbowEdgeStyle;elbow=vertical;endArrow=classic;html=1;curved=0;rounded=0;endSize=8;startSize=8;exitX=0.5;exitY=1;exitDx=0;exitDy=0;" parent="1" source="SD84Jqw0sNpji9GHYgJN-15" target="SD84Jqw0sNpji9GHYgJN-27" edge="1">
          <mxGeometry width="50" height="50" relative="1" as="geometry">
            <mxPoint x="690" y="310" as="sourcePoint" />
            <mxPoint x="760" y="370" as="targetPoint" />
          </mxGeometry>
        </mxCell>
        <mxCell id="SD84Jqw0sNpji9GHYgJN-29" value="" style="edgeStyle=elbowEdgeStyle;elbow=vertical;endArrow=classic;html=1;curved=0;rounded=0;endSize=8;startSize=8;exitX=0.5;exitY=1;exitDx=0;exitDy=0;entryX=0.5;entryY=0;entryDx=0;entryDy=0;" parent="1" source="SD84Jqw0sNpji9GHYgJN-16" target="SD84Jqw0sNpji9GHYgJN-27" edge="1">
          <mxGeometry width="50" height="50" relative="1" as="geometry">
            <mxPoint x="690" y="310" as="sourcePoint" />
            <mxPoint x="620" y="370" as="targetPoint" />
          </mxGeometry>
        </mxCell>
        <mxCell id="SD84Jqw0sNpji9GHYgJN-30" value="10.105.106.84:&lt;div&gt;5000/TCP&lt;/div&gt;" style="text;html=1;align=center;verticalAlign=middle;whiteSpace=wrap;rounded=0;" parent="1" vertex="1">
          <mxGeometry x="630" y="520" width="100" height="30" as="geometry" />
        </mxCell>
        <mxCell id="SD84Jqw0sNpji9GHYgJN-31" value="&lt;span style=&quot;font-size: 14px;&quot;&gt;&lt;b&gt;Replicaset&lt;/b&gt;&lt;/span&gt;" style="rounded=1;arcSize=10;whiteSpace=wrap;html=1;align=center;fillColor=#e1d5e7;strokeColor=#9673a6;" parent="1" vertex="1">
          <mxGeometry x="320" y="160" width="100" height="40" as="geometry" />
        </mxCell>
        <mxCell id="SD84Jqw0sNpji9GHYgJN-32" value="&lt;span style=&quot;font-size: 14px;&quot;&gt;&lt;b&gt;Persistent&lt;/b&gt;&lt;/span&gt;&lt;div&gt;&lt;span style=&quot;font-size: 14px;&quot;&gt;&lt;b&gt;VolumeClaim&lt;/b&gt;&lt;/span&gt;&lt;/div&gt;" style="rounded=1;arcSize=10;whiteSpace=wrap;html=1;align=center;fillColor=#fff2cc;strokeColor=#d6b656;" parent="1" vertex="1">
          <mxGeometry x="320" y="480" width="100" height="40" as="geometry" />
        </mxCell>
        <mxCell id="SD84Jqw0sNpji9GHYgJN-33" value="&lt;b&gt;&lt;font style=&quot;font-size: 14px;&quot;&gt;Deployment&lt;/font&gt;&lt;/b&gt;" style="rounded=1;arcSize=10;whiteSpace=wrap;html=1;align=center;fillColor=#f8cecc;strokeColor=#b85450;" parent="1" vertex="1">
          <mxGeometry x="320" y="400" width="100" height="40" as="geometry" />
        </mxCell>
        <mxCell id="UvK4zwglCHKxDC4locCN-1" value="&lt;b&gt;&lt;font style=&quot;font-size: 14px;&quot;&gt;flask&lt;/font&gt;&lt;/b&gt;" style="rounded=1;arcSize=10;whiteSpace=wrap;html=1;align=center;fillColor=#f8cecc;strokeColor=#b85450;" parent="1" vertex="1">
          <mxGeometry x="630" y="160" width="100" height="40" as="geometry" />
        </mxCell>
        <mxCell id="UvK4zwglCHKxDC4locCN-2" value="" style="endArrow=classic;html=1;rounded=0;entryX=0.5;entryY=0;entryDx=0;entryDy=0;exitX=0.5;exitY=1;exitDx=0;exitDy=0;" parent="1" source="UvK4zwglCHKxDC4locCN-1" target="SD84Jqw0sNpji9GHYgJN-9" edge="1">
          <mxGeometry width="50" height="50" relative="1" as="geometry">
            <mxPoint x="410" y="260" as="sourcePoint" />
            <mxPoint x="460" y="210" as="targetPoint" />
          </mxGeometry>
        </mxCell>
        <mxCell id="UvK4zwglCHKxDC4locCN-3" value="&lt;span style=&quot;font-size: 14px;&quot;&gt;&lt;b&gt;data-source-pvc&lt;/b&gt;&lt;/span&gt;" style="rounded=1;arcSize=10;whiteSpace=wrap;html=1;align=center;fillColor=#fff2cc;strokeColor=#d6b656;" parent="1" vertex="1">
          <mxGeometry x="480" y="480" width="100" height="40" as="geometry" />
        </mxCell>
        <mxCell id="UvK4zwglCHKxDC4locCN-4" value="50GiB" style="text;html=1;align=center;verticalAlign=middle;whiteSpace=wrap;rounded=0;" parent="1" vertex="1">
          <mxGeometry x="480" y="520" width="100" height="20" as="geometry" />
        </mxCell>
      </root>
    </mxGraphModel>
  </diagram>
</mxfile>
